<svg xmlns="http://www.w3.org/2000/svg" width="256" height="256"><path fill-opacity=".016" d="M0 128.004v128.004l128.25-.254 128.25-.254.254-127.75L257.008 0H0v128.004m.485.496c0 70.4.119 99.053.265 63.672.146-35.38.146-92.98 0-128C.604 29.153.485 58.1.485 128.5" fill="#1976D2" fill-rule="evenodd"/><path fill-opacity=".215" d="M111 .656c-1.375.211-6.747 1.327-11.937 2.479C49.42 14.157 10.233 55.492 1.611 105.926c-2.07 12.112-2.07 32.036 0 44.148 7.44 43.521 38.087 81.089 79.554 97.518 19.381 7.679 46.776 10.478 67.928 6.941 52.48-8.775 94.835-49.74 104.462-101.033.929-4.95 2.084-9.781 2.567-10.736 1.257-2.486 1.142-31.045-.122-30.264-.58.359-1-.621-1-2.334 0-1.624-1.316-8.165-2.926-14.536-12.178-48.22-52.799-85.527-102.455-94.097C141.533.137 117.879-.4 111 .656M.402 128c0 8.525.154 12.012.341 7.75.188-4.262.188-11.237 0-15.5-.187-4.263-.341-.775-.341 7.75m124.943-6.995c-1.185.473-19.087 19.678-39.782 42.678L47.935 205.5l4.958 4.75c2.727 2.613 5.433 4.75 6.014 4.75 1.462 0 75.106-81.903 76.177-84.721 2.118-5.571-4.123-11.515-9.739-9.274" fill="#1976D2" fill-rule="evenodd"/><path fill-opacity=".472" d="M115 .612C64.146 6.877 22.64 39.952 7.098 86.596 1.969 101.992.556 110.926.552 128c-.004 16.85 2.016 29.108 7.156 43.419 12.684 35.315 41.558 64.189 76.873 76.873 14.311 5.14 26.569 7.16 43.419 7.156 17.02-.004 26.013-1.418 41.211-6.482 36.486-12.155 65.977-41.059 79.059-77.487 2.969-8.266 6.73-24.978 6.73-29.903 0-1.902.45-3.736 1-4.076.559-.345 1-5.03 1-10.618 0-6.412-.359-9.778-1-9.382-.595.368-1-.829-1-2.958 0-1.967-.947-7.947-2.104-13.288-10.988-50.717-49.072-88.181-100.396-98.76C144.703.887 122.013-.252 115 .612m7.923 26.311C120.101 29.745 120 30.176 120 39.376c0 5.241.508 10.646 1.13 12.009 2.53 5.554 11.21 5.554 13.74 0 .622-1.363 1.13-6.768 1.13-12.009 0-9.2-.101-9.631-2.923-12.453C131.469 25.315 129.185 24 128 24s-3.469 1.315-5.077 2.923M.37 128c0 5.775.165 8.137.367 5.25.202-2.887.202-7.612 0-10.5S.37 122.225.37 128m27.951-6.811c-3.264 1.578-4.848 6.124-3.375 9.681C26.623 134.918 29.798 136 40 136s13.377-1.082 15.054-5.13c1.527-3.686-.149-8.137-3.669-9.74-3.091-1.409-20.119-1.365-23.064.059m89.562 6.061c-3.641 3.988-20.923 23.179-38.403 42.647-25.367 28.252-31.585 35.713-30.8 36.957.541.858 3.1 3.354 5.686 5.546l4.703 3.986 2.328-2.443c1.28-1.344 18.589-20.553 38.465-42.688C130.685 136.929 136 130.561 136 127.959c0-4.171-3.904-7.959-8.203-7.959-2.812 0-4.259 1.058-9.914 7.25m86.438-6.061c-3.264 1.578-4.848 6.124-3.375 9.681 1.677 4.048 4.852 5.13 15.054 5.13s13.377-1.082 15.054-5.13c1.527-3.686-.149-8.137-3.669-9.74-3.091-1.409-20.119-1.365-23.064.059m-79.957 79.981C121.049 202.775 120 206.341 120 216c0 10.202 1.082 13.377 5.13 15.054 3.686 1.527 8.137-.149 9.74-3.669 1.454-3.191 1.468-19.548.02-22.728-1.082-2.373-4.765-4.726-7.187-4.589-.662.037-2.164.533-3.339 1.102" fill="#1976D2" fill-rule="evenodd"/><path fill-opacity=".75" d="M109.189 17.597c-22.763 3.818-47.244 16.894-62.518 33.392C8.576 92.135 5.809 153.533 40.076 197.303c3.36 4.291 6.507 7.666 6.993 7.5.487-.167 14.663-15.603 31.502-34.303l30.617-34-22.594-.269L64 135.962V120H131.651l2.175 2.314c1.368 1.457 2.17 3.589 2.164 5.75-.009 3.109-3.64 7.468-38.194 45.842l-38.185 42.406 3.444 2.878c4.888 4.083 21.173 12.252 30.492 15.294 51.983 16.969 109.569-6.933 134.026-55.629 16.538-32.929 16.538-68.781 0-101.71-21.746-43.299-70.136-67.64-118.384-59.548m13.266 8.858C120.144 28.766 120 29.558 120 40s.144 11.234 2.455 13.545c3.247 3.248 7.843 3.248 11.09 0C135.856 51.234 136 50.442 136 40s-.144-11.234-2.455-13.545C131.998 24.907 129.948 24 128 24s-3.998.907-5.545 2.455m-96 96C24.907 124.002 24 126.052 24 128s.907 3.998 2.455 5.545C28.766 135.856 29.558 136 40 136s11.234-.144 13.545-2.455c3.248-3.247 3.248-7.843 0-11.09C51.234 120.144 50.442 120 40 120s-11.234.144-13.545 2.455m176 0C200.907 124.002 200 126.052 200 128s.907 3.998 2.455 5.545C204.766 135.856 205.558 136 216 136s11.234-.144 13.545-2.455c1.548-1.547 2.455-3.597 2.455-5.545s-.907-3.998-2.455-5.545C227.234 120.144 226.442 120 216 120s-11.234.144-13.545 2.455m-80 80C120.144 204.766 120 205.558 120 216s.144 11.234 2.455 13.545c1.547 1.548 3.597 2.455 5.545 2.455s3.998-.907 5.545-2.455C135.856 227.234 136 226.442 136 216s-.144-11.234-2.455-13.545C131.998 200.907 129.948 200 128 200s-3.998.907-5.545 2.455" fill="#1976D2" fill-rule="evenodd"/></svg>