<svg xmlns="http://www.w3.org/2000/svg" width="256" height="256"><path fill-opacity=".016" d="M0 128.004v128.004l128.25-.254 128.25-.254.254-127.75L257.008 0H0v128.004m.485.496c0 70.4.119 99.053.265 63.672.146-35.38.146-92.98 0-128C.604 29.153.485 58.1.485 128.5" fill="#1976D2" fill-rule="evenodd"/><path fill-opacity=".215" d="M111 .656c-7.16 1.099-22.139 4.862-27.732 6.968C48.851 20.578 20.504 48.86 7.716 83 1.899 98.528.544 107.033.544 128c0 17.171.283 20.635 2.368 29 10.478 42.023 38.996 75.038 78.253 90.592 19.4 7.686 46.772 10.478 67.975 6.934 52.395-8.76 94.798-49.787 104.415-101.026.929-4.95 2.084-9.781 2.567-10.736 1.257-2.486 1.142-31.045-.122-30.264-.576.356-1.001-.573-1.001-2.191-.002-4.108-4.501-21.809-7.407-29.144-16.429-41.467-53.997-72.114-97.518-79.554C141.471.141 118.083-.431 111 .656M.402 128c0 8.525.154 12.012.341 7.75.188-4.262.188-11.237 0-15.5-.187-4.263-.341-.775-.341 7.75m121.169-3.847c-2.485 2.391-20.067 21.672-39.073 42.847l-34.555 38.5 4.954 4.75c2.725 2.613 5.429 4.75 6.01 4.75 1.462 0 75.106-81.903 76.177-84.721 1.592-4.187-1.189-8.514-6.295-9.796-2.275-.571-3.41.006-7.218 3.67" fill="#1976D2" fill-rule="evenodd"/><path fill-opacity=".315" d="M109.5 1.583C67.025 8.141 31.799 33.765 13.454 71.448 5.073 88.664 0 109.989 0 128c0 18.011 5.073 39.336 13.454 56.552 18.532 38.067 53.777 63.5 96.863 69.898 13.187 1.958 22.179 1.958 35.366 0 43.086-6.398 78.331-31.831 96.863-69.898 6.052-12.432 9.755-24.273 11.467-36.661.637-4.615 1.57-9.172 2.073-10.127 1.115-2.119 1.232-21.078.125-20.395-.433.268-1.324-3.449-1.98-8.26-3.583-26.313-16.628-52.395-35.787-71.553-28.243-28.244-69.904-42-108.944-35.973m15.52 23.709c-3.898 1.961-4.989 5.347-5.005 15.535-.014 8.984.092 9.434 2.908 12.25 3.72 3.72 6.458 3.696 10.245-.091l3.013-3.013-.34-10.461c-.29-8.882-.643-10.751-2.341-12.382-2.802-2.691-5.586-3.295-8.48-1.838M.37 128c0 5.775.165 8.137.367 5.25.202-2.887.202-7.612 0-10.5S.37 122.225.37 128m26.553-5.077c-3.697 3.697-3.697 6.457 0 10.154C29.77 135.924 30.111 136 40 136s10.23-.076 13.077-2.923C54.685 131.469 56 129.185 56 128s-1.315-3.469-2.923-5.077C50.23 120.076 49.889 120 40 120s-10.23.076-13.077 2.923m91.896 3.327C89.295 158.714 48 205.154 48 205.892c0 1.25 10.088 10.25 11.089 9.892 1.719-.614 75.753-83.712 76.402-85.754.957-3.015-1.133-7.546-4.106-8.9-4.731-2.156-6.667-1.367-12.566 5.12m84.104-3.327C201.315 124.531 200 126.815 200 128s1.315 3.469 2.923 5.077C205.77 135.924 206.111 136 216 136s10.23-.076 13.077-2.923c1.608-1.608 2.923-3.892 2.923-5.077s-1.315-3.469-2.923-5.077C226.23 120.076 225.889 120 216 120s-10.23.076-13.077 2.923m-80 80C120.076 205.77 120 206.111 120 216s.076 10.23 2.923 13.077c1.608 1.608 3.892 2.923 5.077 2.923s3.469-1.315 5.077-2.923C135.924 226.23 136 225.889 136 216s-.076-10.23-2.923-13.077C131.469 201.315 129.185 200 128 200s-3.469 1.315-5.077 2.923" fill="#1976D2" fill-rule="evenodd"/><path fill-opacity=".807" d="M110 17.477c-28.451 4.827-54.143 20.319-71.175 42.918-26.299 34.894-30.02 80.312-9.793 119.536C33.623 188.832 45.127 205 46.871 205c.751 0 65.38-71.442 65.885-72.83.14-.387-10.435-4.248-23.5-8.58-13.066-4.333-23.915-8.009-24.109-8.17-.32-.265 3.604-12.999 4.496-14.589.207-.369 14.434 4.014 31.616 9.738 21.936 7.308 31.762 11.041 32.991 12.531 2.704 3.279 2.181 7.33-1.5 11.606-4.537 5.272-65.26 72.945-69.654 77.626l-3.596 3.832 3.5 2.952c4.893 4.127 21.12 12.291 30.547 15.368 58.373 19.055 121.78-13.346 140.932-72.017 16.995-52.063-6.888-109.526-55.729-134.087-21.599-10.861-46.095-14.746-68.75-10.903m12.455 8.978C120.144 28.766 120 29.558 120 40s.144 11.234 2.455 13.545c3.247 3.248 7.843 3.248 11.09 0C135.856 51.234 136 50.442 136 40s-.144-11.234-2.455-13.545C131.998 24.907 129.948 24 128 24s-3.998.907-5.545 2.455m-96 96C24.907 124.002 24 126.052 24 128s.907 3.998 2.455 5.545C28.766 135.856 29.558 136 40 136s11.234-.144 13.545-2.455c3.248-3.247 3.248-7.843 0-11.09C51.234 120.144 50.442 120 40 120s-11.234.144-13.545 2.455m176 0C200.907 124.002 200 126.052 200 128s.907 3.998 2.455 5.545C204.766 135.856 205.558 136 216 136s11.234-.144 13.545-2.455c1.548-1.547 2.455-3.597 2.455-5.545s-.907-3.998-2.455-5.545C227.234 120.144 226.442 120 216 120s-11.234.144-13.545 2.455m-80 80C120.144 204.766 120 205.558 120 216s.144 11.234 2.455 13.545c1.547 1.548 3.597 2.455 5.545 2.455s3.998-.907 5.545-2.455C135.856 227.234 136 226.442 136 216s-.144-11.234-2.455-13.545C131.998 200.907 129.948 200 128 200s-3.998.907-5.545 2.455" fill="#1976D2" fill-rule="evenodd"/></svg>